Did not see this here so enjoy. 				

								

								

All credit to the original uploader. 				

								

								

I remuxed this with an older version of MKV Merge so it will 

be more compatible.						

								

								

								

TTLTTLTTLTTLTTLTTLTTLTTLTTLTTLTTLTTLTTLTTLTTL			

								

								

								

								

New_Tricks_S09_E04_The_Girl_Who_Lived_720p.HDTV,x264_TTL.mkv
Format                           : Matroska
File size                        : 1.08 GiB
Duration                         : 58mn 40s
Overall bit rate                 : 2 625 Kbps
Encoded date                     : UTC 2012-09-18 12:07:42
Writing application              : mkvmerge v2.4.0 ('Fumbling Towards Ecstasy') built on 

Oct 11 2008 20:13:15
Writing library                  : libebml v0.7.7 + libmatroska v0.8.1

Video
ID                               : 1
Format                           : AVC
Format/Info                      : Advanced Video Codec
Format profile                   : High@L4.1
Format settings, CABAC           : Yes
Format settings, ReFrames        : 5 frames
Muxing mode                      : Container profile=Unknown@4.1
Codec ID                         : V_MPEG4/ISO/AVC
Duration                         : 58mn 40s
Bit rate                         : 2 381 Kbps
Width                            : 1 280 pixels
Height                           : 720 pixels
Display aspect ratio             : 16:9
Frame rate                       : 25.000 fps
Resolution                       : 8 bits
Colorimetry                      : 4:2:0
Scan type                        : Progressive
Bits/(Pixel*Frame)               : 0.103
Stream size                      : 999 MiB (91%)
Writing library                  : x264 core 125 r2208 d9d2288
Audio                            : English
ID                               : 2
Format                           : AC-3
Format/Info                      : Audio Coding 3
Codec ID                         : A_AC3
Duration                         : 58mn 40s
Bit rate mode                    : Constant
Bit rate                         : 192 Kbps
Channel(s)                       : 2 channels
Channel positions                : L R
Sampling rate                    : 48.0 KHz
Stream size                      : 80.6 MiB (7%)

